<svg xmlns="http://www.w3.org/2000/svg" width="17.126" height="34.42" viewBox="0 0 17.126 34.42"><path d="M146.869,50.42h4.589a.574.574,0,0,0,.574-.574v-16.6l1.674-13.159c0-.017,0-.034,0-.051a1.683,1.683,0,0,0-1.1-1.642V16.574a.574.574,0,0,0-.574-.574H138.264a.574.574,0,0,0-.574.574v1.821a1.683,1.683,0,0,0-1.1,1.641c0,.017,0,.034,0,.051l1.674,13.159v16.6a.574.574,0,0,0,.574.574h4.589a.574.574,0,0,0,.574-.574V33.3l1.147-3.442,1.147,3.442V49.846A.574.574,0,0,0,146.869,50.42ZM152.415,19.6a.527.527,0,0,1,.149.368l-.412,3.243a2.3,2.3,0,0,1-1.267-2.052V19.442h1.147A.528.528,0,0,1,152.415,19.6Zm-.957-1.31h-2.295V17.147h2.295Zm-6.884,0h-2.295V17.147h2.295Zm1.147-1.147h2.295v1.147h-2.295Zm0,2.295h1.147v1.721a1.724,1.724,0,0,1-1.147,1.623Zm-6.884-2.295h2.295v1.147h-2.295Zm.574,2.295v1.721a2.3,2.3,0,0,1-1.267,2.052l-.412-3.242a.532.532,0,0,1,.532-.531Zm3.471,13.587a.574.574,0,0,0-.029.181V49.273h-3.442V33.21a.566.566,0,0,0,0-.072L138.295,24.4a3.454,3.454,0,0,0,2.264-3.234V19.442h4.016v8.512Zm2.839-5.075v-3.98a2.873,2.873,0,0,0,2.295-2.811V19.442h1.721v1.721A3.454,3.454,0,0,0,152,24.4l-1.111,8.741a.568.568,0,0,0,0,.072V49.273h-3.442V33.21a.574.574,0,0,0-.029-.181Z" transform="translate(-136.585 -16)"/></svg>